# xmcd
#
# Track frame offsets: 
#        150
#        16954
#        32643
#        50086
#        63313
#        77038
#        90775
#        100705
#        114678
#        123509
#        141135
#        151863
#        164496
#
# Disc length: 2458 seconds
#
# Revision: 2
# Processed by: cddbd v1.5.1PL0 Copyright (c) Steve Scherf et al.
# Submitted via: ExactAudioCopy v0.95a4
#
DISCID=9e09980d
DTITLE=Howlin' Wolf - The London Howlin' Wolf Sessions
DYEAR=1900
DGENRE=
TTITLE0=Rockin' Daddy
TTITLE1=I ain't superstitious
TTITLE2=Sittin' on top of the World
TTITLE3=Worried about my baby
TTITLE4=What a woman!
TTITLE5=Poor Boy
TTITLE6=Built for comfort
TTITLE7=Who's been talking?
TTITLE8=The Red Rooster (false start)
TTITLE9=The Red Rooster
TTITLE10=Do the Do
TTITLE11=Highway 49
TTITLE12=Wang Dang Doodle
EXTD=featuring Eric Clapton, Steve Winwood, Bill Wyman and Charlie Watts
EXTT0=
EXTT1=
EXTT2=
EXTT3=
EXTT4=
EXTT5=
EXTT6=
EXTT7=
EXTT8=
EXTT9=
EXTT10=
EXTT11=
EXTT12=
PLAYORDER=
